<svg width="513" height="171" viewBox="0 0 513 171" fill="none" xmlns="http://www.w3.org/2000/svg">
<path d="M308.375 102.772C308.584 102.904 309.023 102.871 309.486 102.756C309.506 102.784 309.531 102.845 309.55 102.862C313.43 106.41 335.64 83.1812 346.14 72.1576C355.236 62.6077 373.158 42.9207 370.057 25.819C367.905 13.97 357.297 10.1834 348.423 12.6705C334.565 16.5566 323.542 27.4814 313.634 43.3419C313.533 43.2939 313.437 43.2495 313.332 43.1657C307.04 28.6897 297.832 13.2627 280.613 7.09633C271.557 3.85491 259.575 7.83211 255.876 19.3522C250.538 35.9758 266.961 58.9322 275.276 69.465C284.867 81.6293 295.732 94.7415 308.375 102.772ZM265.223 19.6427C272.006 11.4124 285.652 16.8236 292.413 24.4972C299.17 32.1708 304.155 46.1461 303.65 54.5149C303.145 62.8801 313.28 64.7781 316.297 57.219C317.515 54.1663 317.272 51.3759 316.571 49.1041C320.467 43.1466 338.242 17.6367 354.031 22.2436C365.326 25.5384 361.326 40.33 350.652 55.187C339.978 70.0477 318.489 90.4765 313.21 93.0524C307.93 95.6246 299.285 84.5313 285.162 67.6082C271.043 50.6777 258.44 27.873 265.223 19.6427Z" fill="url(#paint0_linear_142_7)"/>
<path d="M504.009 78.3135C493.286 65.0235 474.612 65.7109 457.618 69.9259C450.135 47.8809 427.388 39.1541 404.644 46.363C377.902 54.8398 359.431 79.0324 342.78 99.2182C326.8 118.597 295.145 160.091 263.999 148.571C266.781 146.473 269.4 144.159 271.779 141.558C282.722 129.606 293.335 102.012 274.425 91.4395C257.421 81.933 240.049 96.0106 236.437 111.63C233.52 124.235 236.739 138.868 245.304 148.927C212.183 162.472 173.148 158.737 141.331 143.77C114.276 130.143 91.7601 103.571 49.0073 108.209C16.1395 111.776 3.45196 130.803 3.45196 130.803C39.8398 103.413 80.1221 114.239 107.145 132.535C135.365 151.642 157.543 158.707 157.543 158.707C157.543 158.707 157.695 158.707 157.934 158.705C171.284 163.59 186.051 165.541 200.067 165.517C217.478 165.485 236.725 163.115 252.692 155.425C256.518 157.95 260.913 159.79 265.918 160.592C289.768 164.408 312.529 147.06 327.483 131.489C347.181 110.976 360.285 85.1626 382.256 66.5481C395.018 55.7364 414.304 45.6393 431.36 53.707C439.589 57.5983 444.826 64.7953 447.263 72.9132C442.89 74.3564 438.798 75.9048 435.192 77.3402C414.393 85.6104 386.823 103.625 383.011 126.824C381.427 136.477 387.302 144.948 397.633 146.856C409.807 149.105 421.629 140.916 430.575 134.077C447.655 121.022 461.674 101.301 459.805 80.1159C466.09 79.0124 472.339 78.5022 478.189 78.9949C490.929 80.067 500.588 89.3954 497.591 102.24C495.444 111.464 487.524 118.466 479.54 123.334C475.535 125.776 478.465 132.105 483.126 130.156C503.35 121.712 520.109 98.2661 504.009 78.3135ZM264.346 93.0113C281.805 94.9867 279.57 115.705 273.435 126.536C269.362 133.725 263.121 139.361 255.964 143.686C239.704 128.808 233.881 89.5659 264.346 93.0113ZM447.543 93.9169C444.994 103.186 439.191 111.415 432.369 118.325C425.779 124.998 410.849 139.345 400.702 137.596C381.789 134.341 391.085 123.076 394.012 116.933C396.877 110.914 402.532 105.614 407.809 101.526C413.639 97.01 420.273 93.4527 427.082 90.4618C433.595 87.5973 441.098 84.8026 448.855 82.6409C448.973 86.4739 448.536 90.3024 447.543 93.9169Z" fill="url(#paint1_linear_142_7)"/>
<path d="M164.753 135.66C180.108 139.935 197.072 144.253 212.243 143.488C212.493 143.475 212.826 143.2 213.119 142.844C213.153 142.854 213.211 142.892 213.238 142.895C218.578 143.528 221.608 112.267 223.009 97.4583C224.226 84.6258 226.071 58.6476 212.774 46.7157C203.561 38.4446 192.698 41.4584 187.189 48.505C178.59 59.5096 176.702 74.5427 178.836 92.8926C178.726 92.9132 178.621 92.9338 178.484 92.9263C164.303 84.9094 147.194 77.7949 129.552 82.6616C120.272 85.2195 113.228 95.2325 117.564 106.566C123.821 122.915 151.451 131.958 164.753 135.66ZM125.206 101.457C125.409 90.9991 139.726 87.5629 149.974 89.8608C160.222 92.1587 173.041 100.522 177.933 107.509C182.826 114.5 192.113 110.251 189.738 102.476C188.775 99.3325 186.816 97.2392 184.821 95.8161C184.161 88.8226 182.205 58.2629 197.718 52.9623C208.819 49.169 214.983 63.297 215.869 81.2815C216.752 99.2661 212.531 127.875 209.948 132.94C207.365 138.008 193.445 134.043 171.465 128.527C149.489 123.01 125.002 111.915 125.206 101.457Z" fill="url(#paint2_linear_142_7)"/>
<defs>
<linearGradient id="paint0_linear_142_7" x1="328.051" y1="116.734" x2="333.28" y2="3.49226" gradientUnits="userSpaceOnUse">
<stop stop-color="#2F4157"/>
<stop offset="1" stop-color="#668DBD"/>
</linearGradient>
<linearGradient id="paint1_linear_142_7" x1="315.161" y1="179.269" x2="314.434" y2="44.5272" gradientUnits="userSpaceOnUse">
<stop stop-color="#2F4157"/>
<stop offset="1" stop-color="#668DBD"/>
</linearGradient>
<linearGradient id="paint2_linear_142_7" x1="184.075" y1="158.691" x2="190.426" y2="41.0004" gradientUnits="userSpaceOnUse">
<stop stop-color="#2F4157"/>
<stop offset="1" stop-color="#668DBD"/>
</linearGradient>
</defs>
</svg>
