<svg width="640" height="178" viewBox="0 0 640 178" fill="none" xmlns="http://www.w3.org/2000/svg">
<path d="M528.011 40.3833C528.011 40.3833 526.543 41.7661 528.011 43.3604C529.479 44.9547 532.335 43.1558 531.678 39.8519C531 36.4492 528.237 34.0049 523.723 34.4292C517.517 35.0142 513.85 41.0205 518.364 47.2932C522.878 53.5659 534.387 52.396 537.209 43.4661C540.029 34.5363 534.545 24.8553 520.452 24.2237C501.495 23.3737 493.371 38.5762 479.04 45.6989C464.708 52.8217 457.826 48.1446 455.682 43.3604C453.538 38.5762 457.6 33.1535 462.34 34.1106C467.08 35.0677 466.854 39.2134 464.484 40.1705C462.114 41.1276 464.032 45.3804 467.644 42.2976C471.255 39.2147 469.224 33.2606 463.694 32.0907C458.164 30.9207 450.856 35.0444 453.426 43.0418C456.022 51.1216 463.469 52.2916 469.788 51.1216C476.107 49.9517 484.457 45.0618 494.951 36.2377C505.445 27.4136 516.278 23.1608 526.546 27.2007C536.814 31.2407 536.024 39.4276 534.444 42.7232C532.799 46.1576 526.8 50.6973 521.948 46.6574C517.344 42.8235 520.001 37.7798 523.274 37.4076C527.288 36.949 527.785 39.4262 528.011 40.3833Z" fill="url(#paint0_linear_71_676)"/>
<path d="M112.954 44.1577C112.954 44.1577 114.421 45.5405 112.954 47.1348C111.486 48.7291 108.629 46.9302 109.287 43.6263C109.964 40.2236 112.728 37.7793 117.241 38.2036C123.447 38.7886 127.114 44.7949 122.602 51.0676C118.088 57.3403 106.579 56.1704 103.758 47.2406C100.937 38.3093 106.423 28.6298 120.515 27.9981C139.472 27.1481 147.596 42.3506 161.928 49.4734C176.259 56.5961 183.141 51.919 185.285 47.1348C187.429 42.3506 183.367 36.9279 178.627 37.885C173.888 38.8421 174.114 42.9878 176.483 43.9449C178.853 44.902 176.935 49.1548 173.324 46.0706C169.713 42.9878 171.744 37.0337 177.273 35.8651C182.803 34.6951 190.111 38.8188 187.541 46.8149C184.945 54.8947 177.498 56.0646 171.18 54.8947C164.86 53.7247 156.51 48.8348 146.016 40.0107C135.523 31.1866 124.689 26.9339 114.421 30.9738C104.153 35.0137 104.942 43.1993 106.522 46.4963C108.167 49.9306 114.166 54.4704 119.018 50.4305C123.622 46.5965 120.965 41.5528 117.692 41.1807C113.676 40.7248 113.179 43.2006 112.954 44.1577Z" fill="url(#paint1_linear_71_676)"/>
<path d="M333.453 161.712C333.453 161.712 341.151 148.853 353.071 149.68C365.319 150.53 370.672 162.31 366.625 170.265C362.578 178.22 351.508 179.718 346.32 173.881C341.131 168.045 344.522 160.214 351.239 159.403C356.5 158.769 357.936 164.314 355.955 165.585C353.973 166.857 353.333 164.472 350.67 164.457C348.007 164.442 345.627 168.314 348.656 172.351C351.55 176.208 358.691 175.61 362.27 170.953C366.656 165.248 364.381 158.351 359.871 155.407C355.362 152.463 349.383 150.95 341.036 157.591C332.689 164.231 334.617 167.84 324.729 177.546L333.453 161.712Z" fill="url(#paint2_linear_71_676)"/>
<path d="M310.575 162.167C310.575 162.167 302.876 149.308 290.957 150.135C278.708 150.985 273.355 162.765 277.402 170.72C281.45 178.674 292.519 180.173 297.708 174.336C302.897 168.5 299.505 160.669 292.789 159.858C287.529 159.224 286.092 164.769 288.074 166.041C290.056 167.312 290.696 164.927 293.359 164.912C296.022 164.897 298.402 168.769 295.373 172.806C292.479 176.664 285.338 176.065 281.759 171.408C277.373 165.703 279.648 158.807 284.158 155.861C288.667 152.916 294.646 151.404 302.993 158.044C311.34 164.685 309.411 168.294 319.3 178L310.575 162.167Z" fill="url(#paint3_linear_71_676)"/>
<path d="M314.377 154.695C310.339 150.699 307.85 148.091 304.336 143.509C302.221 140.753 297.674 135.664 296.339 130.833C293.883 121.954 299.489 118.275 305.61 121.081C311.424 123.745 316.56 128.654 320.309 134.461C320.52 134.789 322.722 135.172 322.552 134.837C318.947 127.735 312.147 119.915 304.923 117.574C300.319 116.081 294.374 118.536 292.863 124.39C290.682 132.838 299.831 142.656 304.327 147.681C309.517 153.478 315.171 160.892 321.768 164.542C322.074 164.712 323.257 164.199 323.046 163.908C321.683 162.032 316.886 157.18 314.377 154.695Z" fill="url(#paint4_linear_71_676)"/>
<path d="M329.953 154.696C333.798 150.7 335.767 148.648 339.113 144.065C341.126 141.309 346.602 134.402 347.131 130.836C348.474 121.756 343.165 119.687 337.335 122.491C331.799 125.155 327.874 128.655 324.307 134.464C324.105 134.792 322.39 135.175 322.553 134.84C325.986 127.738 332.293 120.783 339.171 118.442C343.555 116.949 349.002 118.538 350.44 124.393C352.516 132.841 343.806 142.659 339.523 147.684C334.58 153.481 324.42 166.219 322.362 164.557C322.101 164.347 321.335 161.922 321.676 162.065C322.558 162.432 327.563 157.182 329.953 154.696Z" fill="url(#paint5_linear_71_676)"/>
<path d="M303.944 120.249C303.944 120.249 311.297 122.689 316.052 131.575C322.027 142.743 323.233 138.861 325.104 136.678C327.162 134.277 327.357 129.94 338.231 122.003L335.783 121.357L327.26 128.926L323.44 134.372C323.44 134.372 322.753 135.572 321.871 133.911C320.99 132.249 314.916 125.88 314.916 125.88L308.646 122.096L303.944 120.249Z" fill="url(#paint6_linear_71_676)"/>
<path d="M325.628 9.72157C317.48 -0.82588 301.797 -3.15206 290.602 4.52543C279.408 12.2029 276.939 26.9784 285.087 37.5259C293.236 48.0733 308.919 50.3995 320.113 42.722C331.31 35.0431 333.779 20.269 325.628 9.72157ZM318.06 38.6903C308.257 45.3846 294.733 43.6256 287.855 34.7616C280.977 25.8977 283.347 13.2864 293.152 6.59208C302.955 -0.102209 316.478 1.65684 323.356 10.5208C330.234 19.3833 327.863 31.996 318.06 38.6903Z" fill="url(#paint7_linear_71_676)"/>
<path d="M360.161 9.72157C352.012 -0.82588 336.33 -3.15206 325.135 4.52543C313.94 12.2029 311.471 26.9784 319.62 37.5259C327.768 48.0733 343.451 50.3995 354.646 42.722C365.841 35.0431 368.309 20.269 360.161 9.72157ZM352.591 38.6903C342.788 45.3846 329.264 43.6256 322.386 34.7616C315.507 25.8977 317.878 13.2864 327.682 6.59208C337.485 -0.102209 351.009 1.65684 357.887 10.5208C364.765 19.3833 362.395 31.996 352.591 38.6903Z" fill="url(#paint8_linear_71_676)"/>
<path d="M180.177 82.5316C177.462 81.5498 174.65 80.8261 172.152 80.2988C166.685 78.9778 161.103 78.3214 155.496 78.699C150.436 79.0396 145.132 80.41 140.939 83.512C131.738 76.9894 119.61 73.5331 110.527 73.1472C109.521 73.1047 108.608 73.1335 107.691 73.2049C100.725 66.3664 89.8338 60.7611 74.5813 63.134C57.5026 65.7911 48.166 74.7237 43.6843 80.7327C42.2808 82.5124 40.9836 84.4129 39.8409 86.4658C37.1606 91.2802 33.4587 100.406 29.9082 104.579C25.6961 109.53 19.0209 110.593 13.1152 108.564C3.4201 105.236 -0.512168 89.1984 9.71493 83.1605C10.6302 82.6209 11.7102 82.2625 12.8543 82.0675C18.1362 81.7544 21.4709 88.3333 17.852 91.7429C13.9649 95.4052 15.6658 101.355 21.7391 101.355C27.8124 101.355 34.0067 90.9424 25.7472 82.7032C19.0559 76.0282 11.0106 79.2675 8.1977 80.7382C0.436648 84.3195 -2.43895 94.9905 2.30659 104.103C6.76646 112.669 18.3388 115.088 26.9394 110.041C32.4588 106.801 36.3561 98.4125 39.0699 92.549C42.4032 85.348 46.4404 79.5889 52.5006 75.104C64.309 66.3651 80.2392 63.7848 93.5256 69.6813C95.9217 70.7442 98.3075 72.1627 100.551 73.8682C88.4346 76.0268 74.096 83.9062 72.1094 97.7328C69.9844 112.517 84.4805 122.107 97.3529 119.24C97.5526 119.196 97.742 119.139 97.9373 119.091L97.7275 119.24C118.685 114.466 119.281 96.3211 116.851 87.6234C115.944 84.3772 113.513 79.5683 109.447 75.0299C119.906 75.1329 130.201 78.6345 139.064 85.0995C139.064 85.0995 131.174 91.7429 132.752 104.33C134.33 116.918 149.27 115.772 152.792 110.052C156.315 104.33 157.411 96.3802 142.591 84.7342C148.33 80.8371 156.209 80.605 162.735 80.8769C170.109 81.1859 176.221 82.5508 181.908 84.7383C182.06 84.8029 182.225 84.8701 182.366 84.9333C187.708 87.3378 187.767 85.278 180.177 82.5316ZM96.1447 115.995C84.3581 118.197 69.7877 107.922 75.6963 93.0227C79.5192 83.383 89.0628 78.0303 97.8732 75.9787C99.3015 75.6464 100.759 75.4144 102.227 75.229C107.574 79.8209 111.801 86.1541 112.721 93.5349C114.165 105.132 105.898 114.171 96.1447 115.995ZM145.958 91.1483C149.157 94.5525 153.782 101.141 149.176 106.908C147.457 109.06 145.68 108.886 143.301 108.762C135.819 108.369 133.733 99.36 136.311 92.6904C137.339 90.0319 138.837 87.9447 140.637 86.2914C142.523 87.7827 144.311 89.3962 145.958 91.1483Z" fill="url(#paint9_linear_71_676)"/>
<path d="M457.634 84.9346C457.776 84.8715 457.941 84.8042 458.092 84.7397C463.779 82.5522 469.893 81.1872 477.267 80.8782C483.793 80.605 491.672 80.8384 497.41 84.7355C482.591 96.3802 483.688 104.331 487.21 110.053C490.732 115.775 505.671 116.919 507.25 104.331C508.828 91.7429 500.938 85.1008 500.938 85.1008C511.09 77.6952 523.122 74.1757 535.125 75.2029C532.229 77.8463 529.514 80.8384 527.602 84.6243C520.554 98.5855 526.26 115.59 542.648 119.24C555.52 122.107 570.016 112.516 567.891 97.7327C565.904 83.9061 551.566 76.0268 539.45 73.8681C541.693 72.1626 544.079 70.7441 546.475 69.6813C559.761 63.7848 575.691 66.3637 587.5 75.104C593.56 79.5888 597.597 85.348 600.93 92.549C603.644 98.4111 607.542 106.801 613.061 110.041C621.662 115.088 633.232 112.669 637.694 104.103C642.438 94.9905 639.564 84.3195 631.803 80.7382C628.988 79.2675 620.945 76.0282 614.253 82.7032C605.994 90.9423 612.188 101.355 618.261 101.355C624.335 101.355 626.034 95.4052 622.148 91.7429C618.529 88.3333 621.864 81.7543 627.146 82.0674C628.29 82.2624 629.372 82.6208 630.285 83.1605C640.513 89.1984 636.58 105.236 626.885 108.564C620.978 110.593 614.303 109.53 610.092 104.579C606.542 100.406 602.84 91.2815 600.159 86.4657C592.623 72.9302 579.004 65.261 564.886 64.1391C555.411 63.3866 543.327 67.4032 536.8 73.7665C533.938 73.3655 531.993 73.0401 529.473 73.1472C520.39 73.5331 508.264 76.9894 499.062 83.512C494.87 80.41 489.565 79.0396 484.504 78.699C478.898 78.3214 473.315 78.9778 467.848 80.2988C465.35 80.8261 462.539 81.5484 459.824 82.5316C452.229 85.2779 452.29 87.3377 457.634 84.9346ZM537.771 75.229C539.238 75.4143 540.696 75.6464 542.124 75.9787C550.935 78.0303 560.48 83.3829 564.301 93.0227C570.21 107.922 555.639 118.199 543.853 115.995C534.099 114.171 525.833 105.13 527.277 93.5349C528.197 86.154 532.423 79.8209 537.771 75.229ZM499.361 86.2914C501.159 87.9433 502.659 90.0319 503.686 92.6904C506.265 99.36 504.179 108.369 496.696 108.762C494.318 108.887 492.54 109.062 490.821 106.908C486.216 101.142 490.84 94.5524 494.039 91.1483C495.685 89.3961 497.473 87.7826 499.361 86.2914Z" fill="url(#paint10_linear_71_676)"/>
<path d="M231.162 61.4492C231.134 61.4464 231.107 61.4422 231.081 61.4395C231.162 61.4771 231.204 61.4911 231.162 61.4492Z" fill="url(#paint11_linear_71_676)"/>
<path d="M318.709 70.2731C312.56 69.2913 310.41 63.6681 305.287 60.4891C301.718 58.2742 297.743 57.9021 293.683 59.1448C288.479 60.7377 284.758 64.5194 281.734 68.6486C280.564 70.2443 278.787 74.644 277.015 76.3302C279.567 68.8409 275.54 59.5952 270.974 53.6795C263.285 43.717 246.485 35.1964 245.57 21.481C245.561 21.3451 245.34 21.3217 245.335 21.4714C244.946 31.2389 252.147 39.1787 259.311 45.2413C264.845 49.9238 270.286 55.4935 273.058 62.1246C275.213 67.2809 275.976 71.3552 275.713 77.1006C270.652 79.1466 270.198 73.4067 269.401 70.8855C266.387 61.3391 257.383 60.3422 247.626 59.9646C244.623 59.8479 235.439 60.15 232.453 59.8341C232.425 59.7421 232.394 59.6446 232.356 59.5334C231.852 58.8866 233.097 61.1139 231.889 59.1791C230.304 57.7469 229.283 51.9122 234.911 54.6627C236.152 55.834 237.351 55.2642 236.608 53.8923C234.562 50.1147 231.074 45.829 233.244 41.9951C234.911 39.0496 235.822 41.4993 237.966 43.3614C238.762 44.0521 240.641 43.8365 240.367 42.5031C238.503 33.4346 240.018 25.6953 245.057 19.527C245.138 19.4267 244.965 19.2345 244.825 19.3169C238.489 22.9943 236.503 31.2444 236.921 38.2655C235.349 36.5751 233.106 35.0989 231.115 37.8013C228.242 41.7012 230.191 46.8795 232.317 51.3588C230.597 50.7876 228.812 50.8192 227.556 52.5068C225.93 54.6902 228.762 58.395 230.742 59.7696C225.754 58.9512 219.475 57.0191 215.372 53.7784C209.347 49.0189 205.845 42.2779 205.205 34.952C205.147 34.2832 205.502 33.7216 204.769 33.9029C195.767 36.1274 191.636 46.6145 192.805 54.2714C193.873 61.2773 197.96 66.8085 202.671 72.1365C198.117 70.5326 193.175 70.8663 194.264 76.2671C195.151 80.6695 198.365 84.2878 202.185 86.8886C199.715 88.0174 196.211 94.7103 205.428 100.101C212.64 104.32 218.942 105.922 222.22 106.517C226.815 107.802 232.068 108.405 236.885 108.004V108.133C236.85 108.14 236.816 108.136 236.781 108.148C226.373 112.001 214.134 107.795 204.714 103.209C201.397 101.594 198.212 99.7307 195.202 97.6476C193.658 96.5779 190.782 93.6063 188.432 93.1765C177.681 91.2073 180 106.005 187.905 113.581C189.008 114.638 193.885 118.558 197.427 119.888C195.364 119.691 193.875 119.782 193.324 119.864C191.745 120.101 189.585 120.85 188.443 121.983C182.152 128.219 191.658 134.666 199.056 134.593C200.215 134.582 205.756 134.327 206.582 133.598C205.832 134.752 201.564 138.895 201.034 139.747C199.521 142.173 198.706 146.11 201.14 148.243C204.183 150.908 210.277 149.042 213.857 147.858C215.581 147.288 216.681 146.017 217.728 146.744C218.704 147.423 215.314 152.269 215.834 157.67C215.996 159.343 217.388 161.212 219.993 161.086C223.155 160.932 223.923 155.132 224.603 153.174C227.367 145.205 229.917 136.778 235.811 130.261C242.025 123.391 253.752 122.991 262.646 121.53C275.05 119.492 280.208 114.361 284.941 103.504C292.213 86.8186 295.356 68.4097 316.826 71.1602C316.826 71.1602 317.139 71.259 318.285 70.9638C319.438 70.6658 318.709 70.2731 318.709 70.2731ZM292.434 81.4659C284.403 93.7999 283.349 109.02 268.371 116.479C261.155 120.073 253.262 119.252 245.793 121.759C240.778 123.443 236.685 126.748 233.485 130.695C229.472 135.644 227.118 141.514 225.052 147.369C224.474 149.005 222.214 155.812 221.153 155.997C218.525 156.457 218.71 151.821 218.777 150.745C218.904 148.723 219.037 146.702 219.169 144.681C219.207 144.104 218.556 143.653 218.034 144.049C215.502 145.969 214.807 146.662 211.608 146.922C206.954 147.301 204.09 147.7 203.118 145.411C201.454 141.491 203.547 138.404 206.185 135.703C207.17 134.693 208.221 133.753 209.277 132.811C209.729 132.408 209.13 131.586 208.568 131.764C205.953 132.591 203.719 133.154 200.932 133.018C198.214 132.888 196.37 132.224 193.949 131.054C193.949 131.054 186.858 127.166 190.23 123.181C193.601 119.196 200.086 121.592 202.655 121.157C203.351 121.038 203.119 120.091 202.551 119.963C193.617 117.939 186.38 111.452 184.617 102.808C184.184 101.27 184.059 99.7005 184.239 98.1021C184.413 95.3612 187.696 95.1154 190.289 96.6369C191.005 96.7674 193.108 98.7736 193.889 99.316C196.625 101.218 199.501 102.927 202.496 104.443C211.157 108.828 222.739 112.621 232.907 110.676C241.727 109.354 244.175 105.27 242.471 105.931C241.253 106.403 238.645 106.477 236.707 106.458C232.238 106.262 224.353 105.46 217.191 102.381C216.122 101.921 215.198 101.523 214.346 101.153L214.294 101.124C214.177 101.079 214.077 101.032 213.963 100.989C213.159 100.64 212.459 100.336 211.837 100.064C204.275 96.4721 203.319 92.2304 204.092 90.2543C204.527 89.1379 206.658 89.1393 208.63 89.403C211.229 90.3134 213.941 90.8421 216.546 90.8942C218.26 90.9286 218.158 89.9344 216.782 89.5444C214.743 88.9649 212.586 89.1572 207.438 86.5577C205.661 85.6624 202.388 83.9075 200.932 82.4711C199.24 80.8027 193.758 72.4482 199.764 73.3545C203.936 73.9834 206.77 76.4044 209.035 77.9533C209.55 78.3337 210.073 78.7045 210.609 79.0629C212.272 80.1765 213.425 77.7323 211.863 76.7051C204.524 71.5296 197.897 62.954 195.761 54.4924C194.102 47.9231 196.32 37.7396 203.936 34.6856C205.103 48.1799 211.86 55.8876 222.435 59.7051C224.977 60.6223 227.927 61.1263 231.078 61.4462C231.071 61.4421 231.061 61.438 231.052 61.4339C231.378 61.4943 231.854 61.519 232.654 61.5918C247.067 62.77 264.997 60.875 268.847 75.6478C269.486 78.0975 270.194 81.3341 273.556 81.4865C278.487 81.709 282.22 71.2096 284.616 68.1584C287.51 64.4714 291.247 61.1359 296.213 60.2021C301.686 59.1736 305.565 62.2633 309.232 65.5274C311.164 67.2466 312.964 68.9164 315.081 69.9861C305.428 68.9644 297.877 73.1074 292.434 81.4659Z" fill="url(#paint12_linear_71_676)"/>
<path d="M304.041 63.9219C303.998 63.8779 303.943 63.8463 303.889 63.8133C303.781 63.7432 303.67 63.6854 303.55 63.6373C303.163 63.277 302.596 63.0996 302.053 63.1174C301.25 63.1449 301.081 63.4255 301.024 64.0746C301.018 64.142 301.107 64.1571 301.156 64.1406C301.212 64.1227 301.321 64.1255 301.429 64.1282C300.824 64.9699 300.859 66.3726 302.098 66.44C302.314 66.4524 302.518 66.4084 302.714 66.3424C302.894 66.4029 303.08 66.4441 303.273 66.4414C303.468 66.4386 303.738 66.3671 303.835 66.1856C304.24 65.4347 304.93 64.7416 304.169 64.0127C304.131 63.9783 304.082 63.955 304.041 63.9219Z" fill="url(#paint13_linear_71_676)"/>
<path d="M409.208 61.4512C409.236 61.4484 409.263 61.4442 409.289 61.4414C409.21 61.4791 409.167 61.493 409.208 61.4512Z" fill="url(#paint14_linear_71_676)"/>
<path d="M322.079 70.9604C323.226 71.2556 323.538 71.1568 323.538 71.1568C345.008 68.4076 348.15 86.8166 355.423 103.501C360.155 114.357 365.313 119.489 377.718 121.527C386.612 122.988 398.338 123.387 404.553 130.257C410.447 136.774 412.996 145.202 415.761 153.17C416.44 155.128 417.208 160.929 420.371 161.083C422.975 161.209 424.367 159.34 424.529 157.666C425.051 152.265 421.661 147.419 422.637 146.741C423.684 146.013 424.784 147.285 426.508 147.855C430.088 149.038 436.182 150.905 439.225 148.239C441.659 146.107 440.843 142.17 439.331 139.743C438.801 138.892 434.533 134.75 433.783 133.594C434.609 134.323 440.15 134.577 441.309 134.59C448.707 134.661 458.213 128.214 451.922 121.98C450.78 120.847 448.62 120.097 447.041 119.861C446.49 119.779 445.001 119.687 442.939 119.884C446.48 118.554 451.358 114.633 452.46 113.577C460.366 106 462.684 91.2039 451.933 93.173C449.583 93.6029 446.708 96.5758 445.163 97.6441C442.153 99.7259 438.968 101.589 435.651 103.206C426.233 107.792 413.993 111.998 403.584 108.145C403.55 108.133 403.515 108.137 403.48 108.13V108.001C408.299 108.403 413.551 107.799 418.145 106.514C421.423 105.919 427.724 104.315 434.937 100.098C444.154 94.7083 440.65 88.0154 438.18 86.8852C442 84.2844 445.214 80.6661 446.101 76.2636C447.19 70.8629 442.248 70.5278 437.695 72.1331C442.405 66.8065 446.492 61.2739 447.56 54.2679C448.728 46.611 444.597 36.124 435.596 33.8995C434.863 33.7182 435.218 34.2798 435.16 34.9486C434.52 42.2759 431.018 49.0169 424.993 53.775C420.89 57.0157 414.611 58.9491 409.624 59.7662C411.604 58.3916 414.435 54.6868 412.81 52.5034C411.555 50.8158 409.769 50.7842 408.048 51.3554C410.176 46.8761 412.125 41.6978 409.25 37.7979C407.26 35.0955 405.015 36.5703 403.444 38.2621C403.862 31.241 401.876 22.9909 395.54 19.3135C395.4 19.2325 395.227 19.4233 395.308 19.5236C400.347 25.6919 401.861 33.4312 399.998 42.4997C399.724 43.8331 401.603 44.0501 402.399 43.358C404.543 41.4959 405.454 39.0462 407.121 41.9916C409.291 45.8242 405.804 50.1113 403.757 53.8889C403.014 55.2607 404.213 55.8306 405.454 54.6593C411.083 51.9102 410.059 57.7448 408.477 59.1757C407.268 61.1119 408.514 58.8832 408.009 59.53C407.971 59.6412 407.939 59.7373 407.913 59.8307C404.926 60.1465 395.743 59.8445 392.739 59.9612C382.984 60.3388 373.978 61.3357 370.964 70.8821C370.168 73.4033 369.714 79.1432 364.652 77.0972C364.389 71.3504 365.152 67.2775 367.309 62.1212C370.081 55.4901 375.522 49.9218 381.056 45.2379C388.219 39.1752 395.42 31.2355 395.031 21.468C395.026 21.3197 394.805 21.343 394.797 21.4776C393.881 35.193 377.081 43.7136 369.393 53.6761C364.827 59.5932 360.8 68.8374 363.352 76.3268C361.581 74.6405 359.803 70.2408 358.632 68.6452C355.608 64.5174 351.887 60.7343 346.684 59.1414C342.625 57.8986 338.65 58.2708 335.08 60.4857C329.957 63.6646 327.807 69.2878 321.658 70.2697C321.662 70.2738 320.932 70.6665 322.079 70.9604ZM325.285 69.9841C327.405 68.9143 329.204 67.2445 331.134 65.5253C334.8 62.2612 338.681 59.1716 344.154 60.2001C349.119 61.1325 352.856 64.4693 355.751 68.1563C358.147 71.2076 361.878 81.7069 366.81 81.4845C370.171 81.3334 370.881 78.0968 371.519 75.6457C375.369 60.873 393.3 62.768 407.713 61.5898C408.513 61.517 408.988 61.4923 409.315 61.4319C409.306 61.436 409.296 61.4415 409.288 61.4442C412.441 61.1243 415.391 60.6203 417.931 59.703C428.507 55.8855 435.263 48.1779 436.431 34.6835C444.046 37.7375 446.266 47.9211 444.606 54.4904C442.468 62.9533 435.842 71.5275 428.504 76.703C426.941 77.7316 428.094 80.1745 429.757 79.0608C430.292 78.7024 430.815 78.3317 431.331 77.9513C433.596 76.4023 436.431 73.9814 440.602 73.3525C446.608 72.4476 441.125 80.802 439.435 82.4691C437.979 83.9054 434.705 85.6617 432.929 86.5557C427.781 89.1551 425.624 88.9642 423.585 89.5424C422.209 89.9337 422.107 90.9265 423.821 90.8922C426.425 90.84 429.138 90.3113 431.736 89.4009C433.708 89.1373 435.839 89.1359 436.275 90.2523C437.047 92.2283 436.091 96.4701 428.53 100.062C427.908 100.334 427.208 100.638 426.403 100.986C426.29 101.032 426.189 101.078 426.073 101.122L426.02 101.151C425.169 101.519 424.245 101.919 423.175 102.379C416.013 105.458 408.128 106.261 403.66 106.456C401.721 106.475 399.114 106.401 397.895 105.929C396.191 105.268 398.64 109.352 407.459 110.674C417.628 112.619 429.209 108.826 437.869 104.441C440.865 102.925 443.74 101.214 446.476 99.3139C447.257 98.7715 449.36 96.7653 450.076 96.6348C452.67 95.1134 455.952 95.3592 456.126 98.1C456.308 99.6984 456.181 101.268 455.748 102.806C453.985 111.45 446.748 117.937 437.814 119.961C437.246 120.09 437.014 121.038 437.711 121.154C440.279 121.59 446.764 119.194 450.136 123.179C453.507 127.164 446.416 131.052 446.416 131.052C443.994 132.222 442.151 132.886 439.433 133.016C436.647 133.152 434.412 132.588 431.798 131.762C431.234 131.584 430.636 132.406 431.088 132.809C432.143 133.751 433.194 134.691 434.179 135.701C436.817 138.4 438.91 141.487 437.246 145.409C436.273 147.698 433.411 147.297 428.756 146.92C425.558 146.66 424.861 145.965 422.33 144.047C421.808 143.651 421.157 144.102 421.194 144.679C421.329 146.7 421.46 148.721 421.587 150.743C421.655 151.819 421.839 156.455 419.211 155.995C418.15 155.81 415.889 149.003 415.312 147.367C413.245 141.512 410.892 135.64 406.879 130.693C403.679 126.746 399.586 123.442 394.571 121.757C387.101 119.25 379.21 120.071 371.993 116.477C357.015 109.018 355.962 93.7979 347.932 81.4639C342.494 73.1081 334.943 68.9651 325.285 69.9841Z" fill="url(#paint15_linear_71_676)"/>
<path d="M336.33 63.9229C336.372 63.8789 336.427 63.8473 336.481 63.8143C336.589 63.7442 336.7 63.6864 336.821 63.6383C337.207 63.278 337.774 63.1005 338.318 63.1184C339.121 63.1459 339.29 63.4265 339.347 64.0756C339.353 64.143 339.264 64.1581 339.214 64.1416C339.159 64.1237 339.049 64.1265 338.942 64.1292C339.546 64.9709 339.511 66.3736 338.273 66.441C338.057 66.4534 337.853 66.4094 337.656 66.3433C337.477 66.4039 337.29 66.4451 337.098 66.4424C336.903 66.4396 336.633 66.3681 336.535 66.1866C336.129 65.4357 335.441 64.7426 336.201 64.0137C336.239 63.9793 336.289 63.9559 336.33 63.9229Z" fill="url(#paint16_linear_71_676)"/>
<defs>
<linearGradient id="paint0_linear_71_676" x1="495.61" y1="52.2682" x2="495.61" y2="23.8257" gradientUnits="userSpaceOnUse">
<stop stop-color="#2F4157"/>
<stop offset="1" stop-color="#668DBD"/>
</linearGradient>
<linearGradient id="paint1_linear_71_676" x1="145.756" y1="56.0412" x2="145.756" y2="27.6002" gradientUnits="userSpaceOnUse">
<stop stop-color="#2F4157"/>
<stop offset="1" stop-color="#668DBD"/>
</linearGradient>
<linearGradient id="paint2_linear_71_676" x1="346.445" y1="178.324" x2="346.445" y2="149.27" gradientUnits="userSpaceOnUse">
<stop stop-color="#2F4157"/>
<stop offset="1" stop-color="#668DBD"/>
</linearGradient>
<linearGradient id="paint3_linear_71_676" x1="297.786" y1="178.777" x2="297.786" y2="149.725" gradientUnits="userSpaceOnUse">
<stop stop-color="#2F4157"/>
<stop offset="1" stop-color="#668DBD"/>
</linearGradient>
<linearGradient id="paint4_linear_71_676" x1="307.873" y1="165.898" x2="307.873" y2="116.515" gradientUnits="userSpaceOnUse">
<stop stop-color="#2F4157"/>
<stop offset="1" stop-color="#668DBD"/>
</linearGradient>
<linearGradient id="paint5_linear_71_676" x1="336.241" y1="166.01" x2="336.241" y2="117.292" gradientUnits="userSpaceOnUse">
<stop stop-color="#2F4157"/>
<stop offset="1" stop-color="#668DBD"/>
</linearGradient>
<linearGradient id="paint6_linear_71_676" x1="321.168" y1="139.671" x2="321.168" y2="119.997" gradientUnits="userSpaceOnUse">
<stop stop-color="#2F4157"/>
<stop offset="1" stop-color="#668DBD"/>
</linearGradient>
<linearGradient id="paint7_linear_71_676" x1="305.476" y1="48.5642" x2="305.476" y2="-0.629071" gradientUnits="userSpaceOnUse">
<stop stop-color="#2F4157"/>
<stop offset="1" stop-color="#668DBD"/>
</linearGradient>
<linearGradient id="paint8_linear_71_676" x1="340.008" y1="48.5642" x2="340.008" y2="-0.629071" gradientUnits="userSpaceOnUse">
<stop stop-color="#2F4157"/>
<stop offset="1" stop-color="#668DBD"/>
</linearGradient>
<linearGradient id="paint9_linear_71_676" x1="93.5133" y1="121.339" x2="93.5133" y2="61.8189" gradientUnits="userSpaceOnUse">
<stop stop-color="#2F4157"/>
<stop offset="1" stop-color="#668DBD"/>
</linearGradient>
<linearGradient id="paint10_linear_71_676" x1="547.358" y1="121.298" x2="547.358" y2="63.3073" gradientUnits="userSpaceOnUse">
<stop stop-color="#2F4157"/>
<stop offset="1" stop-color="#668DBD"/>
</linearGradient>
<linearGradient id="paint11_linear_71_676" x1="231.13" y1="61.4758" x2="231.13" y2="61.439" gradientUnits="userSpaceOnUse">
<stop stop-color="#2F4157"/>
<stop offset="1" stop-color="#668DBD"/>
</linearGradient>
<linearGradient id="paint12_linear_71_676" x1="250.369" y1="165.044" x2="250.369" y2="17.409" gradientUnits="userSpaceOnUse">
<stop stop-color="#2F4157"/>
<stop offset="1" stop-color="#668DBD"/>
</linearGradient>
<linearGradient id="paint13_linear_71_676" x1="302.775" y1="66.5348" x2="302.775" y2="63.0719" gradientUnits="userSpaceOnUse">
<stop stop-color="#2F4157"/>
<stop offset="1" stop-color="#668DBD"/>
</linearGradient>
<linearGradient id="paint14_linear_71_676" x1="409.241" y1="61.4777" x2="409.241" y2="61.4409" gradientUnits="userSpaceOnUse">
<stop stop-color="#2F4157"/>
<stop offset="1" stop-color="#668DBD"/>
</linearGradient>
<linearGradient id="paint15_linear_71_676" x1="390.644" y1="165.041" x2="390.644" y2="17.406" gradientUnits="userSpaceOnUse">
<stop stop-color="#2F4157"/>
<stop offset="1" stop-color="#668DBD"/>
</linearGradient>
<linearGradient id="paint16_linear_71_676" x1="337.611" y1="66.5358" x2="337.611" y2="63.0729" gradientUnits="userSpaceOnUse">
<stop stop-color="#2F4157"/>
<stop offset="1" stop-color="#668DBD"/>
</linearGradient>
</defs>
</svg>
