<svg width="640" height="75" viewBox="0 0 640 75" fill="none" xmlns="http://www.w3.org/2000/svg">
<path d="M637.713 25.3498C630.669 12.9932 615.217 7.91611 600.681 15.4277C591.624 20.1082 585.468 30.4733 581.158 37.5194C575.244 47.187 568.39 56.1823 562.202 60.2581C544.282 72.0648 521.028 73.6062 500.779 66.4378C497.127 65.1453 494.047 63.5744 490.627 61.4999C511.696 58.5507 531.547 50.8239 535.138 34.1187C540.036 11.3365 511.778 0.283571 494.663 3.42406C470.233 7.90626 461.2 30.0598 471.943 47.0295C473.272 49.1278 474.932 51.2782 476.754 53.3091L476.341 53.0489C476.341 53.0489 478.709 56.0122 483.126 59.7588C465.028 60.8727 446.673 56.5986 431.371 47.6961C433.775 45.8523 435.842 43.633 437.4 40.9566C441.605 33.7418 444.392 22.3697 433.048 16.1351C420.569 9.2761 401.817 20.1687 408.814 32.9219C411.953 38.6431 419.558 44.1295 425.993 48.1405C417.246 52.8773 405.223 53.4455 395.29 52.8295C386.322 52.2726 376.609 50.5553 367.234 47.9549L367.179 47.9099C342.97 40.4278 328.547 31.0232 320.525 25.7281C323.827 23.333 328.865 18.045 331.517 12.553C332.838 9.81474 333.919 6.48016 332.349 3.33545C330.967 0.569065 326.984 -0.224132 323.974 0.0515222C323.974 0.0515222 318.643 -0.0525558 315.117 5.15815C314.666 4.47605 313.984 3.67159 312.944 2.72086C308.508 -1.3352 295.947 -0.194594 299.822 10.7092C301.834 16.3742 306.124 21.0772 313.507 26.0938C294.563 41.4053 270.452 51.2318 244.708 52.8281C234.775 53.4441 222.752 52.8759 214.005 48.1391C220.44 44.1281 226.606 39.148 230.159 33.6391C240.213 18.052 218.851 8.54476 206.699 15.8932C198.445 20.8859 198.394 33.739 202.599 40.9539C204.159 43.6316 206.224 45.8495 208.628 47.6933C193.234 56.6493 174.75 60.9247 156.546 59.7391C157.658 58.7954 158.64 57.9024 159.487 57.0937C162.768 54.1374 165.855 50.5047 168.057 47.0267C178.799 30.0571 169.516 9.10171 145.084 4.61951C127.969 1.47902 101.767 10.4336 105.125 31.718C107.784 48.5751 128.303 58.5479 149.372 61.4971C145.952 63.5702 142.872 65.1425 139.221 66.435C118.971 73.602 95.7174 72.062 77.7977 60.2553C71.6108 56.1781 64.7556 47.1842 58.8408 37.5166C54.5303 30.4706 48.3751 20.1054 39.3185 15.4249C24.7826 7.9133 9.33044 12.9904 2.28625 25.347C-4.41019 37.0947 3.9116 57.2414 23.2162 54.1065C33.7681 52.3921 37.542 41.3954 32.1957 34.4028C31.3309 33.13 30.088 31.8769 28.3357 31.0514C28.1981 30.9712 28.0832 30.8756 27.9411 30.7982C27.8685 30.7603 27.7959 30.7588 27.7294 30.7771C26.9417 30.4747 26.0647 30.2553 25.0789 30.1597C17.4315 29.4101 16.1841 35.6756 19.1944 38.0778C21.4487 39.8779 24.2262 39.9497 26.2386 36.5799C28.0998 33.4633 32.0188 35.9541 32.5994 39.4546C32.8065 41.3856 32.5631 43.3729 31.8737 45.1913C29.3502 51.8422 18.954 52.9814 12.3513 49.8718C-3.23541 42.5332 3.74679 23.1024 18.5246 19.0562C27.5283 16.5908 36.9599 18.6019 43.3781 24.6185C48.7894 29.6914 55.5856 41.2632 59.7525 47.066C65.4586 55.0094 71.0241 60.6336 77.0387 64.5982L76.8376 64.5363C76.8376 64.5363 91.8982 76.0281 119.314 74.9254C131.316 74.443 141.242 70.1901 148.61 65.5588C150.598 64.4759 152.586 63.2903 154.579 61.9655C158.941 62.4521 161.301 62.3508 165.142 62.2214C178.985 61.7531 197.469 57.5522 211.495 49.6229C217.885 53.3935 226.946 56.1036 234.658 56.517C265.127 58.1513 295.226 46.6793 317.339 28.5494C320.889 30.7251 326.163 33.867 330.864 36.4266C338.658 40.6697 346.322 43.9017 352.89 46.2925C369.543 53.0644 383.114 57.4171 405.373 56.517C413.09 56.2048 422.122 53.3935 428.512 49.6229C442.537 57.5522 461.02 61.7531 474.864 62.2214C478.706 62.3522 481.064 62.4535 485.426 61.9655C486.563 62.7207 487.697 63.4225 488.831 64.0976C496.373 69.259 507.086 74.3924 520.343 74.9254C537.536 75.616 549.866 71.356 556.674 68.0819C565.224 64.1749 572.611 57.6998 580.25 47.066C584.417 41.2632 591.214 29.6914 596.624 24.6185C603.044 18.6005 612.476 16.5908 621.479 19.0562C636.257 23.1024 643.239 42.5332 627.653 49.8718C621.05 52.9814 610.654 51.8422 608.13 45.1913C607.441 43.3729 607.197 41.3856 607.404 39.4546C607.985 35.9527 611.904 33.4633 613.765 36.5799C615.778 39.9497 618.555 39.8779 620.809 38.0778C623.818 35.6756 622.572 29.4115 614.925 30.1597C613.939 30.2568 613.061 30.4747 612.274 30.7771C612.208 30.7588 612.135 30.7589 612.063 30.7982C611.919 30.8756 611.806 30.9712 611.668 31.05C609.914 31.8755 608.673 33.1287 607.807 34.4014C602.46 41.3941 606.234 52.3907 616.786 54.1051C636.088 57.2442 644.411 37.0961 637.713 25.3498ZM152.485 59.6955C150.249 59.4691 148.028 59.1878 145.851 58.7842C132.422 56.2892 117.875 49.7832 112.048 38.0651C103.043 19.9535 125.25 7.46184 143.215 10.141C158.081 12.3575 170.683 23.3471 168.48 37.4421C167.077 46.4135 160.636 54.1135 152.485 59.6955ZM211.029 46.2475C208.288 44.2392 206.004 41.7007 204.437 38.4688C200.508 30.3623 203.687 19.4092 215.091 18.9324C218.716 18.7805 222.637 19.1954 225.257 21.8113C232.278 28.8208 223.551 37.5335 218.674 41.6725C216.164 43.8032 213.905 44.4347 211.029 46.2475ZM317.734 22.6707C317.542 22.8324 317.119 23.1333 317.013 23.2979C316.573 23.2248 316.605 23.1995 315.873 22.6819C314.76 21.9239 313.723 21.1981 312.807 20.5385C303.945 14.1535 300.839 6.1145 305.448 3.95427C306.186 3.68143 308.57 2.95293 310.643 4.04992C312.438 5.00065 313.507 6.43797 313.965 7.16648C313.909 7.28322 313.851 7.40276 313.794 7.53356C313.706 7.70795 313.626 7.91752 313.541 8.15379C313.481 8.32115 313.428 8.49273 313.377 8.66572C313.355 8.74588 313.328 8.7951 313.309 8.87948C313.295 8.93855 313.298 8.97653 313.286 9.03419C313.24 9.23812 313.212 9.43784 313.198 9.63333C313.067 10.8245 313.451 11.4419 314.716 11.771C316.236 12.1648 317.051 10.0299 317.531 8.38726C318.014 6.74458 320.02 4.05977 322.925 3.58018C329.799 2.15269 328.885 7.51247 327.914 10.217C326.021 15.4896 320.567 20.2938 317.734 22.6707ZM428.967 46.2475C426.091 44.4347 423.832 43.8018 421.321 41.6725C416.445 37.5349 408.754 28.8982 415.775 21.8887C418.395 19.2728 421.28 18.7819 424.906 18.9324C436.31 19.4092 439.488 30.3623 435.559 38.4688C433.993 41.7007 431.71 44.2392 428.967 46.2475ZM471.518 37.4421C469.315 23.3471 481.915 12.3561 496.782 10.141C514.747 7.46324 536.955 19.9549 527.95 38.0651C522.124 49.7832 507.576 56.2892 494.147 58.7842C491.97 59.1892 489.749 59.4705 487.513 59.6955C479.362 54.1135 472.919 46.4135 471.518 37.4421Z" fill="url(#paint0_linear_65_474)"/>
<defs>
<linearGradient id="paint0_linear_65_474" x1="320" y1="-5.19512" x2="320" y2="74.6208" gradientUnits="userSpaceOnUse">
<stop offset="0.5" stop-color="#2F4157"/>
<stop offset="1" stop-color="#668DBD"/>
</linearGradient>
</defs>
</svg>
